<mxfile host="app.diagrams.net" modified="2024-05-25T16:34:12.943Z" agent="Mozilla/5.0 (Windows NT 10.0; Win64; x64) AppleWebKit/537.36 (KHTML, like Gecko) Chrome/125.0.0.0 Safari/537.36 Edg/125.0.0.0" etag="Fk5yhYgLd24GARIE1-dZ" version="24.4.8" type="github">
  <diagram id="C5RBs43oDa-KdzZeNtuy" name="Page-1">
    <mxGraphModel dx="573" dy="325" grid="1" gridSize="10" guides="1" tooltips="1" connect="1" arrows="1" fold="1" page="1" pageScale="1" pageWidth="827" pageHeight="1169" math="1" shadow="0">
      <root>
        <mxCell id="WIyWlLk6GJQsqaUBKTNV-0" />
        <mxCell id="WIyWlLk6GJQsqaUBKTNV-1" parent="WIyWlLk6GJQsqaUBKTNV-0" />
        <mxCell id="N0qDIQoG9qAkmdBS3vQT-0" value="" style="rounded=1;whiteSpace=wrap;html=1;" vertex="1" parent="WIyWlLk6GJQsqaUBKTNV-1">
          <mxGeometry x="280" y="50" width="120" height="60" as="geometry" />
        </mxCell>
        <mxCell id="N0qDIQoG9qAkmdBS3vQT-3" value="&lt;span style=&quot;text-align: left; background-color: rgb(255, 255, 255); font-size: 14px;&quot;&gt;&lt;font style=&quot;font-size: 14px;&quot; face=&quot;-apple-system, Roboto, SegoeUI, Segoe UI, Helvetica Neue, Helvetica, Microsoft YaHei, Meiryo UI, Meiryo, Arial Unicode MS, sans-serif&quot; color=&quot;#111111&quot;&gt;$$v^* = +\infty$$&lt;/font&gt;&lt;/span&gt;" style="text;html=1;align=center;verticalAlign=middle;whiteSpace=wrap;rounded=0;fontSize=14;" vertex="1" parent="WIyWlLk6GJQsqaUBKTNV-1">
          <mxGeometry x="295" y="80" width="90" height="20" as="geometry" />
        </mxCell>
        <mxCell id="N0qDIQoG9qAkmdBS3vQT-4" value="$$令L = \{P(X)\}$$" style="text;whiteSpace=wrap;fontSize=14;" vertex="1" parent="WIyWlLk6GJQsqaUBKTNV-1">
          <mxGeometry x="290" y="40" width="220" height="50" as="geometry" />
        </mxCell>
        <mxCell id="N0qDIQoG9qAkmdBS3vQT-5" value="" style="rhombus;whiteSpace=wrap;html=1;" vertex="1" parent="WIyWlLk6GJQsqaUBKTNV-1">
          <mxGeometry x="280" y="140" width="120" height="60" as="geometry" />
        </mxCell>
        <mxCell id="N0qDIQoG9qAkmdBS3vQT-7" value="$$L=\phi?$$" style="text;html=1;align=center;verticalAlign=middle;whiteSpace=wrap;rounded=0;fontSize=14;" vertex="1" parent="WIyWlLk6GJQsqaUBKTNV-1">
          <mxGeometry x="310" y="155" width="60" height="30" as="geometry" />
        </mxCell>
        <mxCell id="N0qDIQoG9qAkmdBS3vQT-8" value="" style="rounded=0;whiteSpace=wrap;html=1;" vertex="1" parent="WIyWlLk6GJQsqaUBKTNV-1">
          <mxGeometry x="280" y="230" width="120" height="60" as="geometry" />
        </mxCell>
        <mxCell id="N0qDIQoG9qAkmdBS3vQT-9" value="$$从L中选取节点集L^s,&lt;br&gt;令i=1$$" style="text;align=center;verticalAlign=middle;rounded=0;html=1;" vertex="1" parent="WIyWlLk6GJQsqaUBKTNV-1">
          <mxGeometry x="274" y="242.5" width="186" height="37.5" as="geometry" />
        </mxCell>
      </root>
    </mxGraphModel>
  </diagram>
</mxfile>
